<?xml version="1.0" encoding="utf-8"?>
<!-- Generator: Adobe Illustrator 21.0.0, SVG Export Plug-In . SVG Version: 6.00 Build 0)  -->
<svg version="1.1" id="Layer_1" xmlns="http://www.w3.org/2000/svg" xmlns:xlink="http://www.w3.org/1999/xlink" x="0px" y="0px"
	 viewBox="0 0 550 550" style="enable-background:new 0 0 550 550; width: " xml:space="preserve">
<style type="text/css">
	.st0{fill:#FFFFFF;}
</style>
<path class="st0" d="M500.1,284.9l-33.5-48.5c-0.7-0.9-16.5-23.5-50.8-30.6l-49.5-9.1c-1.5-0.3-3,0.1-4.3,0.9l-17.3,12l-17.2-12
	c-1.3-0.8-2.7-1.2-4.2-0.9l-46.6,8.6c2.1-8.4,5.4-16.5,9.8-23.3l2.9-4.2c0.2-0.3,0.4-0.7,0.6-1c2.4-2.8,5.9-6,11.1-8.8
	c-0.1,4-0.3,8.2-0.6,12.7c-0.3,2.5,1.6,4.7,4,4.9c0.1,0,0.3,0,0.4,0c2.3,0,4.3-1.8,4.5-4.1c0.6-6.2,0.7-11.9,0.6-17.3
	c1.2-0.4,2.4-0.8,3.7-1.1c2.5-0.6,4.2-2.9,4.2-5.4c0-2.5-1.7-4.8-4.2-5.5l-4.5-1.2c-1.6-15.9-5.5-28.1-9.3-36.5
	c-1-2.3-3.7-3.3-6-2.3c-2.3,1-3.3,3.7-2.3,6c3.2,7.1,6.5,17.2,8.1,30.2l-15.5-4.2c-1.2-1.1-2.5-2-3.9-2.9l-8.9-5.5
	c-4.2-2.6-9-3.9-13.9-3.9c-9.2,0-17.6,4.6-22.5,12.4l-22.8,28.7c-1-1.9-2.2-4.1-3.7-6.8c-13.7-24.9-20.7-59.3-20.7-59.6
	c-0.4-1.7-1.5-3.2-3-4c-1.6-0.8-3.4-0.8-5-0.1c-1.4,0.7-33,15.9-42.5,52.1c-3.2-1.4-6.3-2.8-9.2-4.2c-38.3-18-61.5-47.1-61.8-47.4
	c-1.2-1.5-3-2.3-4.9-2.1c-1.9,0.2-3.6,1.2-4.5,2.9c-0.5,0.9-46.3,87,38.1,154c0.1,0.1,0.2,0.2,0.4,0.3l4.1,2.8l-56.1,15
	c-1.7,0.4-3.1,1.7-3.8,3.4c-0.7,1.7-0.5,3.6,0.5,5.1c0.7,1.1,18.4,28.3,51.8,28.3c1.8,0,3.6-0.1,5.5-0.3c0.4,0,0.9-0.1,1.3-0.3
	l38.3-13.1c5.7,2.9,21.3,9.8,42,10.9c-0.1,0.8-0.2,1.4-0.3,2c-0.1,0.6-0.1,1.3,0,1.9l0.1,0.4c-1.4,20.3,8.1,40.1,25.1,51.8l3.1,2
	c-2.6,3.7-4.1,8.2-4.1,12.9c0,4.6,1.4,9.1,4,12.8c4.2,6.1,11.2,9.8,18.6,9.8c4.6,0,9-1.4,12.8-4l4.4-3c0.2,4.1,1.6,8,3.9,11.4
	c4.2,6.1,11.2,9.7,18.6,9.7c3.1,0,6.1-0.7,8.9-1.9c0.1,4.4,1.4,8.7,4,12.3c3.7,5.4,9.5,8.9,15.9,9.7c-0.7,2.2-1.2,4.5-1.2,6.9
	c0,4.6,1.4,9,4,12.8c4.2,6.1,11.1,9.7,18.5,9.7c4.6,0,9-1.4,12.8-4l30.9-21.4c1.9-1.3,3.7-3,5.1-4.8l8.5,5.9c3.7,2.6,8.1,4,12.7,4
	c7.4,0,14.4-3.6,18.6-9.7c2.3-3.3,3.6-7.1,3.8-11.1c3,1.4,6.2,2.1,9.5,2.1c7.5,0,14.4-3.7,18.6-9.8c2.6-3.8,3.8-8.1,3.9-12.3
	c2.8,1.2,5.8,1.9,8.9,1.9c7.4,0,14.4-3.6,18.6-9.8c2.6-3.8,3.9-8.1,4-12.3c2.7,1.1,5.6,1.8,8.6,1.8c7.4,0,14.4-3.7,18.6-9.8
	c5.5-7.9,5.2-18.2-0.2-25.8C513.5,332.7,514.2,305.3,500.1,284.9 M262.3,150.7c4.1,0,7.4,3.3,7.4,7.4c0,4.1-3.3,7.4-7.4,7.4
	c-4.1,0-7.4-3.3-7.4-7.4C254.9,154.1,258.2,150.7,262.3,150.7 M176,295.4c-2.4-0.6-3.9-3-3.4-5.4c0.6-2.4,3-3.9,5.4-3.4
	c0.2,0,16.1,3.5,34.4-3.1l0.5-0.3c0.3-0.2,0.6-0.3,1-0.4c13.4-4.1,24.6-13.6,30.6-26.1c1.1-2.3,3.8-3.2,6-2.1c2.2,1.1,3.2,3.8,2.1,6
	c-7.1,14.5-20,25.7-35.6,30.6l-0.4,0.2c-0.2,0.2-0.4,0.3-0.7,0.4c-10.2,3.7-19.7,4.7-26.9,4.7C181.4,296.6,176.4,295.5,176,295.4
	 M232.5,389.9c-5,3.4-12.3,2.1-15.8-2.9c-1.3-1.9-2-4.1-2-6.4c0-3.7,1.8-7.2,4.9-9.3l49.1-33.9c1.9-1.3,4.1-2,6.4-2
	c3.7,0,7.2,1.8,9.2,4.9c3.5,5.1,2.2,12.2-2.9,15.7L232.5,389.9z M272.2,404c-4.9,3.4-12.3,2-15.7-2.9c-1.3-1.9-2-4.1-2-6.4
	c0-3.7,1.8-7.2,4.9-9.3l49.2-33.9c1.9-1.3,4.1-2,6.4-2c3.7,0,7.2,1.8,9.3,4.9c3.5,5.1,2.3,12.1-2.8,15.7L272.2,404z M288,421.3
	c-1.3-1.9-2-4.1-2-6.4c0-3.7,1.8-7.2,4.9-9.3l49.1-33.9c1.9-1.3,4.1-2,6.4-2c3.7,0,7.2,1.8,9.2,4.9c2.2,3.1,2.6,6.9,1.4,10.4
	c-0.8,2.2-2.3,4-4.2,5.3l-49.1,33.9C298.7,427.7,291.4,426.3,288,421.3 M357.5,426.7c-0.7,2.2-2.2,4.1-4.1,5.5l-30.9,21.3
	c-5,3.4-12.3,2-15.7-2.9c-1.3-1.9-2-4.1-2-6.4c0-3.7,1.9-7.2,5-9.3l30.9-21.3c1.9-1.3,4.1-2,6.4-2c3.7,0,7.2,1.8,9.3,4.9
	C358.2,419.6,358.8,423.2,357.5,426.7 M395.4,430.3c-3.4,4.9-10.7,6.4-15.8,2.9l-10.5-7c0.8-5.6-0.4-11.3-3.7-16
	c-2.5-3.6-6-6.4-10-8.1l3.7-2.5c2-1.3,3.6-3,5.1-4.8l28.3,19.9c2.5,1.7,4.2,4.3,4.7,7.2C397.8,424.9,397.1,427.9,395.4,430.3
	 M489.9,371.2c-3.4,5-10.4,6.6-15.9,2.8l-11.5-7.3c-0.1-0.1-0.1-0.1-0.2-0.2l-73.7-50c-2.6-1.8-6.1-1.1-7.8,1.5
	c-1.8,2.6-1.1,6.1,1.5,7.8l71,48.1c0.2,0.1,0.3,0.4,0.5,0.5l2.4,1.5h0c5,3.6,6.2,10.5,2.6,15.6c-3.4,4.9-10.3,6.5-15.8,2.7L430,386
	c-0.1-0.1-0.3-0.1-0.5-0.2l-63.2-43.7c-2.6-1.8-6.1-1.1-7.9,1.4c-1.8,2.6-1.1,6.1,1.5,7.8l63.8,44.1l0.7,0.5
	c5.1,3.6,6.4,10.6,2.9,15.7c-2.1,3-5.6,4.9-9.3,4.9c-2.3,0-4.5-0.7-6.3-1.9l-13.6-10c-0.2-0.1-0.4-0.1-0.6-0.3l-28.8-20.2
	c0.8-5.5-0.5-11.2-3.8-15.9c-4.2-6.1-11.2-9.8-18.6-9.8c-3.1,0-6.1,0.7-8.9,1.9c-0.1-4.3-1.4-8.6-4-12.3c-4.2-6.1-11.2-9.7-18.6-9.7
	c-4.6,0-9,1.4-12.8,4l-4.5,3.1c-0.2-4-1.4-8-3.9-11.5c-4.2-6.1-11.1-9.7-18.5-9.7c-4.6,0-9,1.4-12.8,4L216.3,360l-5.5-3.6
	c-13.8-9.5-21.5-25.7-20.1-42.3c0-0.5,0-1.1-0.1-1.6l0-0.2c0.2-0.9,0.3-1.9,0.5-2.8c0.1,0,0.3,0,0.4-0.1l0.7-0.2
	c45.4-0.3,82.2-37.4,82.2-82.7l0.2-5.1c0-1.4,0.1-2.9,0.2-4.3c0.2,0,0.3-0.1,0.5-0.1c0.3,0,0.5-0.2,0.7-0.3l47-8.6l11.8,8.2
	l-48,33.1c-0.8,0.5-1.5,1.6-2,2.4c-0.9,1.8-0.7,4,0.4,5.7c6.8,9.9,17.1,16.5,28.9,18.7c11.8,2.2,23.7-0.4,33.7-7.3l6.8-4.8l3.5,2.5
	c2.8,2.8,6.1,5.1,10,6.9l119.1,82.1c0.2,0.2,0.4,0.3,0.7,0.6C492.3,360,493.2,366.4,489.9,371.2 M490.5,344.2l-95.6-65.9
	c7.7-0.4,15.6-2.2,22.9-5.4c2.9-1.2,4.1-4.6,2.9-7.4c-1.3-2.8-4.6-4.1-7.4-2.9c-12.9,5.7-28.4,6.1-39.6,1l-8.3-5.7
	c-1.4-1.4-2.5-3-3.2-4.7c-0.6-1.4-2-2.4-3.4-2.9c-1.4-0.5-3.2-0.3-4.6,0.3c-0.3,0.1-0.5,0.3-0.8,0.5l-12,8.6
	c-7.4,5.1-16.3,7-25.2,5.4c-7-1.3-13.3-4.7-18.1-9.7l68.5-47.3l47.1,8.6c29.5,6.2,43.6,25.8,43.7,26l33.5,48.5
	C501.9,307.4,501.6,329,490.5,344.2 M274.5,131.6c-5.9-3.9-8.8-10.5-8-16.4c5.1-3,12.3-2.8,18.2,1.1c5.9,3.9,8.8,10.4,8,16.4
	C287.6,135.8,280.4,135.5,274.5,131.6 M307.3,132.6c-1.8-5.7,0-12.6,5.2-17.5c5.2-4.9,12.2-6.3,17.8-4.1c1.8,5.7,0,12.6-5.1,17.5
	C320,133.3,312.9,134.7,307.3,132.6 M315.8,101.2c-2.7,6.6-8.5,10.7-14.5,11.1c-4-4.5-5.2-11.5-2.5-18.1c2.7-6.5,8.5-10.7,14.5-11
	C317.3,87.6,318.5,94.7,315.8,101.2 M291.7,109.4c-5.9,1-12.5-1.8-16.6-7.5c-4.1-5.8-4.6-12.9-1.6-18.2c5.9-1,12.5,1.7,16.6,7.5
	C294.1,97,294.5,104.1,291.7,109.4"/>
</svg>
