<?xml version="1.0" encoding="utf-8"?>
<!-- Generator: Adobe Illustrator 21.0.0, SVG Export Plug-In . SVG Version: 6.00 Build 0)  -->
<svg version="1.1" id="Layer_1" xmlns="http://www.w3.org/2000/svg" xmlns:xlink="http://www.w3.org/1999/xlink" x="0px" y="0px"
	 viewBox="0 0 550 550" style="enable-background:new 0 0 550 550;" xml:space="preserve">
<style type="text/css">
	.st0{fill:#FFFFFF;}
</style>
<path class="st0" d="M457.3,414c-0.7-0.6-75-55.8-145.3-135.6c-1.1-1.2-2.7-1.9-4.3-1.9h-1c0.2-6.1,0.3-12.3,0.3-18.6
	c0-3.2-2.6-5.7-5.7-5.7c-3.2,0-5.7,2.6-5.7,5.7c0,6.4-0.1,12.6-0.3,18.6h-0.5c-1.6,0-3.2,0.7-4.3,1.9
	c-16.2,18.4-32.6,35.5-48.3,50.9V199.9c0-0.9-0.2-1.7-0.5-2.4c0.5-0.8,0.8-1.7,0.8-2.7c0-17-13.8-30.9-30.8-30.9h-11.1l32.3-22.3
	c1.5-1.1,2.5-2.8,2.5-4.7V87.7c0-2.1-1.2-4.1-3.1-5.1c-1.9-1-4.2-0.8-5.9,0.4l-39.4,27.3V82.4c0-3.2-2.6-5.7-5.7-5.7H156
	c-3.2,0-5.7,2.6-5.7,5.7v28.1L110.6,83c-1.7-1.2-4-1.4-5.9-0.4c-1.9,1-3.1,2.9-3.1,5.1v49.2c0,1.9,0.9,3.6,2.5,4.7l32.3,22.4h-15.2
	c-17,0-30.8,13.8-30.8,30.9c0,1.2,0.5,2.3,1.1,3.2c-0.2,0.6-0.4,1.2-0.4,1.9v129.6c-0.4,0.8-0.7,1.6-0.7,2.6c0,2.8,0.2,5.6,0.5,8.7
	c3.9,34.2,30.2,60.8,63.2,66.2c-5.6,4.4-8.9,6.8-9,7c-2,1.5-2.8,4.1-2,6.4c0.8,2.3,3,3.9,5.4,3.9h30.5v42.9c0,2.8,2.1,5.2,4.9,5.7
	c0.4,0.1,2.8,0.4,6.9,0.4c11.2,0,34.5-2.8,57.5-22.5c21.8-18.7,37.5-47.2,47.2-85.3v101.7c0,3.2,2.6,5.7,5.7,5.7l117,0.3h0
	c1.5,0,3-0.6,4.1-1.7c1.1-1.1,1.7-2.6,1.7-4.1l-0.5-43.2h30.5c2.5,0,4.7-1.6,5.4-3.9C460.1,418,459.3,415.5,457.3,414z M417.6,412.9
	c-1.5,0-3,0.6-4.1,1.7c-1.1,1.1-1.7,2.6-1.7,4.1l0.5,43.1l-105.4-0.3V289.9c52.2,58.6,105.9,103.6,130.2,122.9H417.6z M241.1,441.9
	c-20.4,17.6-40.8,20-50.1,20c-0.1,0-0.3,0-0.4,0v-43.3c0-3.2-2.6-5.7-5.7-5.7h-19.5c24.1-19.2,77.4-63.8,129.3-121.9
	C289.4,381,263.3,422.7,241.1,441.9z M131.3,318.4v-46.8c0-3.2-2.6-5.7-5.7-5.7c-3.2,0-5.7,2.6-5.7,5.7l0,46.5
	c0,0.8-0.3,7.5,0.6,16.3h-17.9V205.7h128.1v128.7H132C131,325.7,131.3,318.7,131.3,318.4z M119.2,338.1l14.4-0.7
	c2.1,13.2,8.6,30,27.7,32.1c3.9,0.4,6.8,4,6.3,7.9c-0.4,3.7-3.5,6.4-7.1,6.4c-0.3,0-0.5,0-0.8,0
	C132.6,380.8,122.1,357.9,119.2,338.1z M188.2,123.2l35.4-24.6v35.3l-35.4,24.5V123.2z M161.8,88.1h13.5v73.7h-13.5V88.1z
	 M113.1,98.6l35.4,24.6v35.2l-35.4-24.6V98.6z M384.6,389.6v54.4c0,1-0.8,1.8-1.8,1.8h-13.4c-1,0-1.8-0.8-1.8-1.8v-19.7H351v19.7
	c0,1-0.8,1.8-1.8,1.8h-13.4c-1,0-1.8-0.8-1.8-1.8v-54.4c0-1,0.8-1.8,1.8-1.8h13.4c1,0,1.8,0.8,1.8,1.8v19.1h16.6v-19.1
	c0-1,0.8-1.8,1.8-1.8h13.4C383.8,387.8,384.6,388.6,384.6,389.6z"/>
</svg>
