<?xml version="1.0" encoding="utf-8"?>
<!-- Generator: Adobe Illustrator 21.0.0, SVG Export Plug-In . SVG Version: 6.00 Build 0)  -->
<svg version="1.1" id="Layer_1" xmlns="http://www.w3.org/2000/svg" xmlns:xlink="http://www.w3.org/1999/xlink" x="0px" y="0px"
	 viewBox="0 0 550 550" style="enable-background:new 0 0 550 550;" xml:space="preserve">
<style type="text/css">
	.st0{fill:#FFFFFF;}
</style>
<path class="st0" d="M414.9,297.6l17.3-19.1c17.2-18.9,25.9-43.4,24.7-68.9c-1.2-25.5-12.3-49-31.2-66.2l-9.7-8.8
	c-39-35.4-99.6-32.5-135.1,6.5l-57.3,63.1l-37.6,42c-2.1,2.3-1.9,5.9,0.4,8c4.1,3.7,8.7,6.5,13.6,8.4L94.4,379.1
	c-1.8,2.1-2,5.1-0.3,7.3c1.6,2.1,40.2,51.1,95.4,53.7c1.4,0.1,2.8,0.1,4.2,0.1c47.9,0,84.7-38,90.7-44.6l79.7-38.2l16.5-7.2
	c1.4-0.6,2.5-1.8,3-3.2c0.5-1.4,0.5-3-0.2-4.4c-2.1-4.4-4.9-8.4-8.2-11.9c2.9,0,5.9-0.3,9.1-0.8c0.4-0.1,0.8-0.2,1.1-0.3
	c8.1,6.3,17.4,8.5,25.7,8.5c7.1,0,13.6-1.6,18-3.4c1.5-0.7,2.7-1.9,3.2-3.4c0.5-1.5,0.3-3.2-0.5-4.6L414.9,297.6z M232,211.9
	l57.3-63.1c31.2-34.4,84.6-37,119-5.8l9.7,8.8c16.6,15.1,26.4,35.8,27.5,58.3c1.1,22.5-6.6,44-21.8,60.7l-14.9,16.5l-39.3-66.9
	c-1-1.8-2.9-2.9-5-2.8l-38.7,1c11.9-8,22.3-20.8,24.7-40.6c0.4-3.1-1.8-5.9-4.9-6.3c-3.1-0.4-5.9,1.8-6.3,4.9
	c-4.5,37.1-43.2,42.3-49.2,42.9l-11.5,0.3l6.4-7.1c2.1-2.3,1.9-5.9-0.4-8c-2.3-2.1-5.9-1.9-8,0.4l-34.9,38.1
	c-6,6.7-14.3,10.7-23.3,11.2c-7.1,0.4-14-1.4-19.9-5.1L232,211.9z M256.1,291.9l27.3,47.4c-14.8,6-22.5-1.5-24-3.2l-19-34.2
	c-1.3-2.2-1.6-4.8-0.9-7.2c0.6-2.4,2.2-4.4,4.4-5.7C248,286.8,253.2,288,256.1,291.9 M293.8,334.6l-27-46.8
	c-0.1-0.2-0.2-0.4-0.3-0.7c-0.2-0.4-0.5-0.8-0.8-1.2l-8.2-14.2c-1.2-2.2-1.6-4.7-0.9-7.1c0.7-2.4,2.2-4.5,4.4-5.8
	c2.2-1.3,4.9-1.6,7.3-0.9c2.2,0.6,4,2.1,5,4c0,0.1,0.1,0.1,0.1,0.2l26.6,46.2l10.8,18.5L293.8,334.6z M321.1,322.3l-11.3-19.5
	L295,277.1c-0.1-0.3-0.2-0.5-0.3-0.8l-6.4-11.1c-1.3-2.2-1.6-4.7-0.9-7.2c0.7-2.4,2.2-4.5,4.4-5.7c2.7-1.5,5.9-1.7,8.7-0.4
	c1.7,0.8,3.2,2.2,4.2,3.9l12.5,21.8c0.4,1,0.8,1.9,1.3,2.8l6.4,11.1c0.3,0.5,0.6,0.9,1,1.3l5.1,8.8c1.8,4.5,5.3,10.2,10.5,15.3
	c-6.2,0.2-12.3,1.6-18,4.3L321.1,322.3z M327.4,267.6c0.7-2.4,2.2-4.5,4.4-5.7c2.7-1.6,5.9-1.7,8.7-0.4c1.7,0.8,3.2,2.2,4.2,3.9
	l10.4,18.1l19.5,33.7c0.1,0.3,0.3,0.5,0.5,0.7c0.3,0.5,0.7,1,1,1.6c-25.3,0.6-34.3-21.4-34.7-22.4c-0.1-0.3-0.2-0.5-0.4-0.8
	l-13.5-23.5C327,271.1,326.9,269.3,327.4,267.6 M384.5,311.6c-0.1-0.1-0.2-0.3-0.3-0.4l-19.3-33.4l-10.4-18
	c-2.1-3.7-5.3-6.7-9.2-8.5c-6.1-2.8-13.2-2.5-19.2,0.8c-2.8,1.6-5.1,3.8-6.9,6.4l-4.8-8.4c-2.1-3.7-5.3-6.7-9.2-8.5
	c-6.1-2.8-13.3-2.5-19.1,0.8c-3.4,1.9-6.1,4.8-7.9,8.1c-1.9-1.6-4.2-2.7-6.7-3.5c-5.4-1.6-11.3-0.8-16.1,2
	c-4.8,2.8-8.3,7.3-9.7,12.6c-1.3,5-0.8,10.3,1.7,14.9c-3.1,0.1-6.2,1-9,2.6c-4.8,2.8-8.2,7.2-9.7,12.6c-1.5,5.4-0.7,11,2,15.7
	l19.2,34.5c0.1,0.3,0.3,0.5,0.5,0.7c4.7,6.1,18.8,15.2,39,6.3l39-17.6c8.2-3.9,17.3-4.4,25.8-1.3c6.6,2.3,12.2,6.6,16.2,12.2
	l-10.8,4.7c-0.1,0-0.1,0-0.2,0.1l-80.8,38.7c-0.7,0.3-1.3,0.8-1.8,1.4c-0.4,0.4-38.7,43.7-86.6,41.5c-41.6-1.9-74-34.7-83.8-45.7
	l106.4-117.4c2.1,0.2,4.2,0.2,6.3,0.1c12-0.7,23.1-6,31.1-14.9l17.9-19.4l21.4-0.6c0.1,0,0.2,0,0.3,0h0.2c0.4,0,0.9-0.1,1.3-0.1
	l70.4-1.8l40.9,69.8c0.2,0.7,0.6,1.4,1.1,2l14.9,25.4C409.8,327.8,394.4,327.9,384.5,311.6"/>
</svg>
