<?xml version="1.0" encoding="utf-8"?>
<!-- Generator: Adobe Illustrator 21.0.0, SVG Export Plug-In . SVG Version: 6.00 Build 0)  -->
<svg version="1.1" id="Layer_1" xmlns="http://www.w3.org/2000/svg" xmlns:xlink="http://www.w3.org/1999/xlink" x="0px" y="0px"
	 viewBox="0 0 550 550" style="enable-background:new 0 0 550 550;" xml:space="preserve">
<style type="text/css">
	.st0{fill:#FFFFFF;}
</style>
<g>
	<path class="st0" d="M479.5,283.2c-4.5-2.1-9.2-3.1-14.1-3.1c-12,0-23.1,6.5-29,16.7c-0.5,0.5-0.9,1.1-1.2,1.7l-28.8,61.8
		l-52.4,8.3l9-8c10.8-9.5,11.9-26.1,2.5-37l-1.6-2.2c-1-1.4-2.6-2.3-4.3-2.5c-1.7-0.2-3.4,0.4-4.7,1.5L275.8,391l-80.7-70.4
		c-1.3-1.1-3-1.7-4.7-1.5c-1.7,0.2-3.3,1.1-4.3,2.4l-1.6,2.2c-4.6,5.3-6.8,11.9-6.4,18.9c0.4,7,3.6,13.5,8.9,18.1l9.1,8l-52.4-8.4
		l-28.8-61.8c-0.3-0.6-0.7-1.2-1.2-1.7c-8.5-14.9-27.3-21-43.1-13.7c-3.1,1.5-4.4,5.1-3,8.2l11,24.1l33.3,71.4
		c2.2,4.8,6.2,8.5,11.2,10.3l88.9,40.7v44.3c0,3.5,2.8,6.2,6.2,6.2h48.7c0.1,0,0.2,0,0.2,0H332c3.4,0,6.2-2.8,6.2-6.2v-44.3
		l88.9-40.7c5-1.9,9-5.5,11.2-10.3l33.3-71.4l10.9-24.1C483.9,288.3,482.6,284.7,479.5,283.2 M220.6,428.3l-92.7-42.4
		c-0.2-0.1-0.3-0.1-0.5-0.2c-2-0.7-3.5-2.2-4.4-4l-33.3-71.3l-8-17.7c9-1.2,18.1,3.4,22.1,12c0.2,0.5,0.5,1,0.9,1.4l29.1,62.5
		c0.9,1.8,2.6,3.2,4.6,3.5l76.7,12.2c2.7,0.4,5.4-1,6.6-3.5c1.2-2.5,0.6-5.5-1.5-7.3l-25-22.1c-2.8-2.5-4.5-5.9-4.7-9.6
		c-0.1-2.6,0.4-5.2,1.6-7.5l75.1,65.5c-8.6,10.7-24,35.5-25.2,76.2h-17.8V434C224.2,431.5,222.8,429.3,220.6,428.3 M460.3,310.3
		L427,381.7c-0.9,1.8-2.4,3.3-4.4,4c-0.2,0.1-0.3,0.1-0.5,0.2l-92.7,42.4c-2.2,1-3.6,3.2-3.6,5.6v42.1h-71.5
		c1.5-49.6,26.5-73,26.7-73.2l76.9-68.4c2.9,5.6,1.8,12.6-3.1,17l-25.1,22.1c-2.1,1.8-2.7,4.8-1.5,7.3c1.2,2.5,3.8,3.9,6.5,3.5
		l76.7-12.2c2-0.3,3.8-1.6,4.7-3.5l29.1-62.5c0.4-0.4,0.7-0.9,0.9-1.4c3.5-7.4,11-12.2,19.2-12.2c1,0,2,0.1,2.9,0.2L460.3,310.3z"/>
	<path class="st0" d="M186.2,243h7l8.7,56.9v0.1c0.6,4.7,3.9,8.6,8.6,8.6c4.7,0,7.8-4,8.5-8.6c0.5,4.7,3.8,8.6,8.6,8.6
		c2.6,0,4.8-1.3,6.2-3.3l-6.5-53.8c-2.6-2.1-4.5-5.2-4.9-8.8c-0.1-0.5-0.1-0.9-0.1-1.3c-0.6-8.2-2-27.7-2.4-33.8
		c-0.1-1.9-0.2-3.2-0.2-4.7c0-14.1,11.5-25.5,25.6-25.5h1.1h0.1c14.1,0,25.5,11.4,25.5,25.5c0,1.6-0.1,2.9-0.2,4.7
		c-0.4,6.2-1.8,25.6-2.4,33.8c0,0.5-0.1,0.9-0.1,1.3c-0.4,3.6-2.2,6.6-4.8,8.8l-6.3,54.5c2.2,3.5,6,5.9,10.5,5.9
		c6.1,0,11.4-4.1,12.4-9.9h0.3v-0.3c0.9,5.9,7.1,10.3,13.2,10.3c0.1,0,0.2,0,0.3,0c-1.9-1.1-3.1-3.2-3.4-5.7v-0.1l-6.7-41.6h-5.3
		c-3.4-0.1-6.3-2.8-6.1-6.2c0-0.4,0.1-1,0.1-1c0-0.1,0-0.3,0.1-0.4l14.3-69.3l0.3-1.5c1.8-7.3,8.4-12.7,16.2-12.7h1
		c7.8,0,14.4,5.4,16.3,12.7l0.3,1.5l4.2,20.3l1.6,7.6l8.5,41.3c0.1,0.1,0.1,0.3,0.1,0.4c0,0,0.1,0.7,0.1,1c0.2,3.4-2.8,6.2-6.2,6.2
		h-5.6l-7,41.4c0,0.1,0,0.1,0,0.2c-0.3,2.3-1.4,4.4-3.1,5.6c0.8,0.2,1.6,0.3,2.5,0.3c5.6,0,10.6-3.8,11.5-9.3l0.3,0l0-0.1
		c1,5.3,6.6,9.3,12.2,9.3c6.3,0,11.5-5.1,11.5-11.4l10.2-80.4c3.3-2.7,5.6-6.6,6.1-11.1c0.1-0.6,0.1-1.1,0.1-1.7
		c0.7-10.4,2.5-34.9,3-42.8c0.1-2.4,0.3-4,0.3-6c0-17.8-14.5-32.3-32.3-32.3h-0.1h-1.4c-8.9,0-16.9,3.6-22.7,9.4
		c-4.5-14-17.6-24.2-33.1-24.2h-0.2h-1.5c-19,0-34.5,15.4-34.7,34.4c7.4,0.4,13.2,6.5,13.2,14c0,7.7-6.2,13.9-14,13.9
		c-7.7,0-14-6.2-14-13.9c0-6.8,4.9-12.5,11.4-13.7l-0.9-4.1l-0.4-2c-2.4-9.5-11-16.6-21.3-16.6h-1.3c-10.3,0-18.9,7.1-21.3,16.6
		l-0.4,2l-18.7,90.8c0,0.2-0.1,0.4-0.1,0.5c0,0-0.1,0.9-0.1,1.4C177.8,239.3,181.7,242.9,186.2,243 M304.7,137.7
		c8,0,14.6,6.5,14.6,14.6c0,8.1-6.5,14.6-14.6,14.6c-8.1,0-14.6-6.5-14.6-14.6C290.1,144.3,296.6,137.7,304.7,137.7"/>
	<path class="st0" d="M280.7,99.5c10.5,0,19-8.5,19-19c0-10.5-8.5-19-19-19c-10.4,0-19,8.5-19,19C261.7,91,270.2,99.5,280.7,99.5"/>
	<path class="st0" d="M304.1,307.2c0.1-0.1,0.2-0.2,0.3-0.4c0-0.2-0.1-0.4-0.1-0.6C304.3,306.6,304.2,306.9,304.1,307.2"/>
	<path class="st0" d="M338.1,115.2c9.7,0,17.6-7.9,17.6-17.6c0-9.7-7.9-17.6-17.6-17.6c-9.7,0-17.6,7.9-17.6,17.6
		C320.5,107.3,328.4,115.2,338.1,115.2"/>
	<path class="st0" d="M219.4,115.1c11.4,0,20.7-9.2,20.7-20.6c0-11.4-9.3-20.7-20.7-20.7c-11.4,0-20.7,9.2-20.7,20.7
		C198.7,105.8,208,115.1,219.4,115.1"/>
</g>
</svg>
