<?xml version="1.0" encoding="utf-8"?>
<!-- Generator: Adobe Illustrator 21.0.0, SVG Export Plug-In . SVG Version: 6.00 Build 0)  -->
<svg version="1.1" id="Layer_1" xmlns="http://www.w3.org/2000/svg" xmlns:xlink="http://www.w3.org/1999/xlink" x="0px" y="0px"
	 viewBox="0 0 550 550" style="enable-background:new 0 0 550 550;" xml:space="preserve">
<style type="text/css">
	.st0{fill:#FFFFFF;}
</style>
<g>
	<path class="st0" d="M162,295.9c0.3-0.5,0.6-1,0.6-1.7C162.5,294.9,162.3,295.5,162,295.9"/>
	<path class="st0" d="M171.3,226.2l5.2-6.5c-7.6,2.5-14.8,5.8-21.7,9.6L171.3,226.2z"/>
	<path class="st0" d="M201.6,379.9c-0.5-2.7-2.7-4.6-5.4-4.6c-2.7-0.1-5,1.8-5.6,4.4l-3.1,14.4c-0.4,2.1,0.3,4.2,1.9,5.5
		c1,0.8,2.3,1.3,3.5,1.3c0.8,0,1.6-0.2,2.3-0.5l5.1-2.3c2.3-1,3.6-3.5,3.2-6L201.6,379.9z"/>
	<path class="st0" d="M469.9,148.3l-75.4-72.9c-1.1-1.1-2.6-1.7-4.2-1.7H285c-1.8,0-3.6,0.8-4.8,2.3l-55.6,71.7
		c-0.9,0-1.8-0.1-2.7-0.1c-26,0-47.2,21.2-47.2,47.2c0,4,0.5,7.8,1.4,11.5c-56.6,17.1-97.8,69.8-97.8,132
		c0,76,61.6,137.8,137.4,137.8c75.7,0,137.4-61.8,137.4-137.8c0-58-35.9-107.7-86.6-128c1.5-4.2,2.4-8.6,2.6-13.2h59.8
		c15.7,18.1,38.4,28.4,62.5,28.4c0.7,0,18.3-0.3,37-9.2c17.5-8.4,39.3-26.1,43.5-63.1C471.9,151.5,471.3,149.6,469.9,148.3
		 M302,122.2h39.3c7.7,0,13.9,6.2,13.9,13.9c0,7.6-6.2,13.8-13.7,13.8l-10.2-0.2h-48.6c-0.7,0-1.5,0-2.2,0.1L302,122.2z
		 M114.9,264.9c0.1,0,0.2-0.1,0.3-0.1l13-4.8c1.4-0.5,2.6-1.7,3.2-3.1c0.6-1.4,0.6-3.1-0.1-4.5l-2-4.2c6.7-6.5,14.2-12.2,22.2-17
		c-0.3,0.5-0.6,1-0.7,1.7l-1.7,11.5c-0.2,1.1,0.2,2.4,0.9,3.2c0.1,0.1,0.2,0.2,0.3,0.4l-30.1,18.9c-1.4,0.9-2.1,2.4-1.8,4l1.4,8.1
		l-13.5,10.3c-1.2,0.9-1.7,2.3-1.6,3.6c0.2,1.4,1,2.6,2.4,3.2l10.4,4.5l-6.9-0.4c-1.3-0.1-2.6,0.5-3.4,1.5l-15.3,20.1
		C94.9,300.7,103,281.3,114.9,264.9 M221.9,242.2c8.7,0,16.8-2.4,23.8-6.5c3.7,1,7.5,2.3,11.1,3.7c1.1,0.4,1.7,1.4,1.7,2.6V254
		c0,0.9-0.5,1.8-1.2,2.3c-0.5,0.3-1,0.4-1.5,0.4c-0.4,0-0.8-0.1-1.1-0.2c-11.7-5.3-24.1-8-37-8c-10.7,0-21.2,1.9-31.2,5.6
		c-0.8,0.3-1.8,0.2-2.5-0.3c-0.7-0.5-1.2-1.4-1.2-2.3v-11.9c0-1.2,0.8-2.3,1.9-2.6c3.6-1.2,7.2-2.1,10.9-2.9
		C203.1,239.2,212.1,242.2,221.9,242.2 M162.6,294.3c-0.1,0.6-0.3,1.2-0.6,1.7C162.3,295.5,162.5,294.9,162.6,294.3 M123.1,299.4
		l8-11.8l10.5,6.8c0.7,0.4,1.4,0.7,2.2,0.7h0c2.2,0,4-1.8,4-4c0-0.5-0.1-1.1-0.3-1.5l-0.1-0.4c9.3,8.4,9.9,8.4,11.4,8.4
		c0.5,0,0.9-0.1,1.3-0.2h0.4c2.9,0,9.3,0.5,13.6,0.8l-0.4,2.7l-4.9,2.4l-47.2-2.6C122.1,300.5,122.7,300,123.1,299.4 M171.3,226.2
		l-16.5,3.1c6.9-3.9,14.1-7.1,21.7-9.6L171.3,226.2z M221.9,230.1c-19.4,0-35.1-15.8-35.1-35.2c0-19.4,15.8-35.1,35.1-35.1
		c2,0,3.8,0.1,5.8,0.5c7.3,1.2,14.1,4.7,19.3,10c-3.7,6.3-5.7,13.4-5.7,20.8c0,3.4,2.7,6.1,6,6.1h9.7
		C255.7,215.5,240.5,230.1,221.9,230.1 M256.6,456.5l-28.5-8.6c-0.3-0.1-0.7-0.2-1-0.2l-25.7-1c-0.4,0-0.8,0-1.2,0.1
		c-0.1,0-8.2,2.3-16.2,4.8c-5.3,1.7-9.1,2.9-11.9,4C124.8,437.9,91,392,91,338.4c0-3.9,0.2-7.8,0.6-11.6l13.5,25.7
		c0.5,0.9,1.4,1.7,2.4,2c1,0.3,2.1,0.2,3.1-0.4c0,0,3.5-2,6.9-4c2-1.2,3.6-2.2,4.7-2.9c0,0,0,0,0,0c2.2,1.5,5.9,4.1,9.4,6.6
		l7.2,24.2l5,36.5c0.2,1.5,1.2,2.8,2.7,3.2l15.7,5.2c0.4,0.1,0.9,0.2,1.3,0.2c0.5,0,1-0.1,1.5-0.3l2.5-1c0.7-0.3,1.2-0.7,1.7-1.3
		l13.5-17.3c0.3-0.4,0.6-0.9,0.7-1.4l8.5-32.6l17.3-20.1c0.8-0.9,1.2-2.2,0.9-3.4c-0.3-1.2-1.1-2.2-2.2-2.8l-7.4-3.5l16.9-9.8
		c1-0.5,1.7-1.5,1.9-2.6c0.2-1.1,0-2.2-0.6-3.2l-8.2-11.5l17.9,4.1l18.6,29.6c0.8,1.3,2.3,2,3.8,1.8c1.5-0.2,2.8-1.2,3.3-2.7
		l5.6-17.5l7.5-6.8l10.3,7.8l2.3,15.6c0.1,0.6,0.3,1.2,0.7,1.7l7.5,10.6l3.6,16c0.4,1.9,2.1,3,4,3.1c2.2,0,3.9-1.8,3.9-4
		c0-0.3,0-0.5-0.1-0.8l-3.8-42c23.2-21,23.2-21.1,22-24c-0.1-0.4-0.3-0.7-0.5-1c-1.1-2.4-4.9-14-8.5-25l0.3-0.4l11.1,9.8
		c1.2,1,2.9,1.3,4.3,0.6l4.8-2.3c7.2,15.8,11.2,33.3,11.2,51.7C340.3,393,305.2,439.5,256.6,456.5 M391.2,213.6
		c-20.8,0-40.4-9.1-53.8-24.9c-1-2.1-3-3.6-5.5-3.6h-78c0.9-4.2,2.7-8.2,5.4-11.7c2.3-3.1,5.4-5.7,8.8-7.7c4.4-2.6,9.4-3.9,14.6-3.9
		l48.5,0l10.2,0.2c14.3,0,25.9-11.6,25.9-25.9c0-14.3-11.6-25.9-25.9-25.9h-42.8c-2.6,0-4.8,1.7-5.6,4.1L260,156.3
		c-0.1,0.1-0.1,0.2-0.2,0.3c-1.9,1.3-3.7,2.6-5.3,4.2c-4.8-4.6-10.5-8.1-16.7-10.4l50.2-64.7h99.9l71.5,69.1
		C451,212.2,393.6,213.6,391.2,213.6"/>
	<path class="st0" d="M244.5,198.8c-3.1-1.5-6.9-0.2-8.4,2.9c-1.8,3.8-5,6.7-9.1,8.1c-3.3,1.1-5,4.7-3.9,8c0.9,2.6,3.3,4.2,5.9,4.2
		c0.7,0,1.4-0.1,2.1-0.3c7.2-2.5,12.9-7.7,16.2-14.5C248.9,204,247.6,200.3,244.5,198.8"/>
	<path class="st0" d="M199.2,190.8c0.9,0.4,1.8,0.6,2.7,0.6c2.3,0,4.6-1.3,5.6-3.5c2.9-5.9,8.9-9.4,15.5-8.9
		c3.5,0.3,6.4-2.3,6.7-5.8c0.2-3.4-2.3-6.4-5.8-6.7c-11.7-0.9-22.6,5.4-27.7,16C194.8,185.6,196,189.3,199.2,190.8"/>
</g>
</svg>
