<?xml version="1.0" encoding="utf-8"?>
<!-- Generator: Adobe Illustrator 21.0.0, SVG Export Plug-In . SVG Version: 6.00 Build 0)  -->
<svg version="1.1" id="Layer_1" xmlns="http://www.w3.org/2000/svg" xmlns:xlink="http://www.w3.org/1999/xlink" x="0px" y="0px"
	 viewBox="0 0 72.4 70.5" style="enable-background:new 0 0 72.4 70.5;" xml:space="preserve">
<style type="text/css">
	.st0{fill:#00B9F2;}
	.st1{fill:#A066AA;}
	.st2{fill:#EA5630;}
	.st3{fill:#FAA61A;}
	.st4{fill:#50B848;}
</style>
<g>
	<path class="st0" d="M40.5,3.1H29.9c-0.8,0-1.5-0.7-1.5-1.5S29.1,0,29.9,0h10.6C41.4,0,42,0.7,42,1.5S41.4,3.1,40.5,3.1z"/>
	<path class="st0" d="M42.1,9.6H20c-0.8,0-1.5-0.7-1.5-1.5s0.7-1.5,1.5-1.5h22.1c0.8,0,1.5,0.7,1.5,1.5S43,9.6,42.1,9.6z"/>
	<path class="st0" d="M44.4,16.1H12.2c-0.8,0-1.5-0.7-1.5-1.5s0.7-1.5,1.5-1.5h32.2c0.8,0,1.5,0.7,1.5,1.5S45.2,16.1,44.4,16.1z"/>
	<path class="st0" d="M46.7,22.6H17.6c-0.8,0-1.5-0.7-1.5-1.5s0.7-1.5,1.5-1.5h29.1c0.8,0,1.5,0.7,1.5,1.5S47.5,22.6,46.7,22.6z"/>
	<path class="st0" d="M48.8,29.6H30.4c-0.8,0-1.5-0.7-1.5-1.5s0.7-1.5,1.5-1.5h18.5c0.8,0,1.5,0.7,1.5,1.5S49.7,29.6,48.8,29.6z"/>
	<path class="st1" d="M26.8,41.3c-0.1,0-0.3,0-0.4-0.1c-0.8-0.2-1.3-1.1-1-1.9L30.4,22c0.2-0.8,1.1-1.3,1.9-1c0.8,0.2,1.3,1.1,1,1.9
		l-5.1,17.3C28,40.8,27.4,41.3,26.8,41.3z"/>
	<path class="st2" d="M36.3,48c-0.3,0-0.6-0.1-0.9-0.3L20.8,37.6c-0.7-0.5-0.9-1.4-0.4-2.1c0.5-0.7,1.4-0.9,2.1-0.4l14.7,10.1
		c0.7,0.5,0.9,1.4,0.4,2.1C37.3,47.8,36.8,48,36.3,48z"/>
	<path class="st3" d="M30.7,52c-0.5,0-1-0.2-1.3-0.7c-0.5-0.7-0.3-1.7,0.4-2.1L44.5,39c0.7-0.5,1.7-0.3,2.1,0.4
		c0.5,0.7,0.3,1.7-0.4,2.1L31.6,51.7C31.3,51.9,31,52,30.7,52z"/>
	<path class="st4" d="M53.8,43.8c-0.6,0-1.2-0.4-1.5-1L40.7,8.6c-0.3-0.8,0.2-1.7,1-1.9c0.8-0.3,1.7,0.2,1.9,1l11.6,34.2
		c0.3,0.8-0.2,1.7-1,1.9C54.1,43.8,54,43.8,53.8,43.8z"/>
	<path class="st4" d="M59.4,40c-0.6,0-1.2-0.4-1.5-1L47.5,8.2c-0.3-0.8,0.2-1.7,1-1.9c0.8-0.3,1.7,0.2,1.9,1L60.8,38
		c0.3,0.8-0.2,1.7-1,1.9C59.7,40,59.6,40,59.4,40z"/>
	<path class="st4" d="M65.1,36.2c-0.6,0-1.2-0.4-1.5-1l-7.4-22c-0.3-0.8,0.2-1.7,1-1.9c0.8-0.3,1.7,0.2,1.9,1l7.4,22
		c0.3,0.8-0.2,1.7-1,1.9C65.4,36.2,65.2,36.2,65.1,36.2z"/>
	<path class="st4" d="M47.7,47.4c-0.7,0-1.3-0.4-1.5-1.1l-5.5-17.5c-0.3-0.8,0.2-1.7,1-1.9c0.8-0.3,1.7,0.2,1.9,1l5.5,17.5
		c0.3,0.8-0.2,1.7-1,1.9C48,47.4,47.8,47.4,47.7,47.4z"/>
	<path class="st3" d="M36.5,56.4c-0.5,0-1-0.2-1.3-0.7c-0.5-0.7-0.3-1.6,0.4-2.1l28.6-20.2c0.7-0.5,1.7-0.3,2.1,0.4
		c0.5,0.7,0.3,1.6-0.4,2.1L37.3,56.1C37.1,56.3,36.8,56.4,36.5,56.4z"/>
	<path class="st3" d="M41.9,60.4c-0.5,0-1-0.2-1.3-0.7c-0.5-0.7-0.3-1.6,0.4-2.1l25.8-18.2c0.7-0.5,1.6-0.3,2.1,0.4
		c0.5,0.7,0.3,1.6-0.4,2.1L42.8,60.1C42.5,60.3,42.2,60.4,41.9,60.4z"/>
	<path class="st3" d="M47.5,64.5c-0.5,0-1-0.2-1.3-0.7c-0.5-0.7-0.3-1.7,0.4-2.1l17.9-12.5c0.7-0.5,1.7-0.3,2.1,0.4
		c0.5,0.7,0.3,1.7-0.4,2.1L48.4,64.2C48.1,64.4,47.8,64.5,47.5,64.5z"/>
	<path class="st3" d="M52.2,69.3c-0.5,0-1-0.2-1.3-0.6c-0.5-0.7-0.3-1.6,0.4-2.1l8.6-6.1c0.7-0.5,1.6-0.3,2.1,0.4
		c0.5,0.7,0.3,1.6-0.4,2.1L53,69C52.8,69.2,52.5,69.3,52.2,69.3z"/>
	<path class="st2" d="M47.5,64.5c-0.3,0-0.6-0.1-0.9-0.3L18,44.1c-0.7-0.5-0.9-1.4-0.4-2.1c0.5-0.7,1.4-0.9,2.1-0.4l28.6,20.1
		c0.7,0.5,0.9,1.4,0.4,2.1C48.4,64.3,48,64.5,47.5,64.5z"/>
	<path class="st2" d="M43.3,69.4c-0.3,0-0.6-0.1-0.9-0.3L15.7,50.5C15,50,14.9,49,15.3,48.3c0.5-0.7,1.4-0.9,2.1-0.4l26.7,18.6
		c0.7,0.5,0.9,1.4,0.4,2.1C44.2,69.2,43.8,69.4,43.3,69.4z"/>
	<path class="st2" d="M33.3,70.5c-0.3,0-0.6-0.1-0.9-0.3L13.5,56.9c-0.7-0.5-0.9-1.4-0.4-2.1c0.5-0.7,1.4-0.9,2.1-0.4l18.9,13.3
		c0.7,0.5,0.9,1.4,0.4,2.1C34.2,70.3,33.8,70.5,33.3,70.5z"/>
	<path class="st2" d="M21.3,69.9c-0.3,0-0.6-0.1-0.9-0.3l-8.7-6.1c-0.7-0.5-0.9-1.4-0.4-2.1c0.5-0.7,1.4-0.9,2.1-0.4l8.7,6.1
		c0.7,0.5,0.9,1.4,0.4,2.1C22.2,69.7,21.8,69.9,21.3,69.9z"/>
	<path class="st1" d="M14.4,57.1c-0.1,0-0.3,0-0.5-0.1c-0.8-0.3-1.3-1.1-1-1.9l10.4-33.8c0.3-0.8,1.1-1.3,1.9-1
		c0.8,0.3,1.3,1.1,1,1.9L15.9,56.1C15.7,56.7,15.1,57.1,14.4,57.1z"/>
	<path class="st1" d="M8.6,54.3c-0.1,0-0.3,0-0.4-0.1c-0.8-0.2-1.3-1.1-1-1.9l9.5-31.1c0.2-0.8,1.1-1.3,1.9-1c0.8,0.2,1.3,1.1,1,1.9
		l-9.5,31.1C9.9,53.8,9.2,54.3,8.6,54.3z"/>
	<path class="st1" d="M4.5,45.1c-0.1,0-0.3,0-0.5-0.1c-0.8-0.3-1.3-1.1-1-1.9l6.9-22.4c0.3-0.8,1.1-1.3,1.9-1c0.8,0.3,1.3,1.1,1,1.9
		L5.9,44C5.7,44.7,5.1,45.1,4.5,45.1z"/>
	<path class="st1" d="M1.5,32.8c-0.1,0-0.3,0-0.5-0.1c-0.8-0.2-1.3-1.1-1-1.9l3.1-10.1c0.2-0.8,1.1-1.3,1.9-1c0.8,0.2,1.3,1.1,1,1.9
		L3,31.7C2.8,32.4,2.2,32.8,1.5,32.8z"/>
	<path class="st4" d="M70.8,32.5c-0.6,0-1.2-0.4-1.4-1l-3.5-9.8c-0.3-0.8,0.1-1.7,0.9-2c0.8-0.3,1.7,0.1,2,0.9l3.5,9.8
		c0.3,0.8-0.1,1.7-0.9,2C71.2,32.5,71,32.5,70.8,32.5z"/>
	<path class="st0" d="M42.4,22.6h-31c-0.8,0-1.5-0.7-1.5-1.5s0.7-1.5,1.5-1.5h31c0.8,0,1.5,0.7,1.5,1.5S43.2,22.6,42.4,22.6z"/>
	<path class="st0" d="M45.1,29.6H34c-0.8,0-1.5-0.7-1.5-1.5s0.7-1.5,1.5-1.5h11c0.8,0,1.5,0.7,1.5,1.5S45.9,29.6,45.1,29.6z"/>
</g>
</svg>
